<?xml version="1.0" encoding="iso-8859-1"?>
<!-- Generator: Adobe Illustrator 19.0.0, SVG Export Plug-In . SVG Version: 6.00 Build 0)  -->
<svg version="1.1" id="Layer_1" xmlns="http://www.w3.org/2000/svg" xmlns:xlink="http://www.w3.org/1999/xlink" x="0px" y="0px"
	 viewBox="0 0 511.844 511.844" style="enable-background:new 0 0 511.844 511.844;" xml:space="preserve">
<polygon style="fill:#FFD2A6;" points="426.463,195.378 252.126,27.976 85.403,195.378 85.403,490.538 426.463,490.538 "/>
<polygon style="fill:#EC5564;" points="29.163,227.415 255.953,0 482.681,226.118 452.533,256.266 255.906,60.31 59.31,257.563 "/>
<path style="fill:#8CC153;" d="M149.001,266.419c0,0-4.514,70.9,28.718,104.921c20.377,20.854,53.789,21.26,74.665,0.922l0,0
	c20.813-20.385,21.188-53.797,0.82-74.664C219.972,263.576,149.001,266.419,149.001,266.419z"/>
<path style="fill:#79AA41;" d="M248.205,362.53c-3.265-4.874-8.028-11.2-14.159-18.744c-10.247-12.652-20.744-24.415-21.189-24.899
	l0,0c-1.819-2.03-4.412-3.373-7.349-3.545c-5.873-0.328-10.911,4.17-11.239,10.043c-0.164,2.938,0.883,5.671,2.702,7.701
	c16.183,18.119,34.811,41.254,36.739,46.814c-0.289-0.828-0.656-3.89,1.391-6.904l17.635,11.98
	C258.015,377.197,252.11,368.372,248.205,362.53z"/>
<path style="fill:#A0D468;" d="M359.438,230.852c0,0-91.082,7.123-128.359,55.607c-22.86,29.727-17.323,72.338,12.355,95.237l0,0
	c29.764,22.806,72.36,17.214,95.213-12.512C375.947,320.699,359.438,230.852,359.438,230.852z"/>
<path style="fill:#8CC153;" d="M310.936,301.69c-0.968-5.795-6.467-9.716-12.262-8.748c-1.577,0.266-3.014,0.875-4.264,1.734v-0.016
	c-1,0.688-24.578,17.042-45.244,46.471c-27.694,39.457-36.871,83.662-26.523,127.852l20.76-4.858
	c-9.005-38.426-1.328-75.492,22.812-110.169c18.448-26.477,40.051-41.566,40.27-41.723l-0.016-0.016
	C309.78,309.953,311.654,305.906,310.936,301.69z"/>
<path style="fill:#7F4545;" d="M447.77,469.217c0-11.715-9.591-21.322-21.307-21.322H85.403c-11.723,0-21.321,9.607-21.321,21.322
	v21.321c0,11.716,9.599,21.306,21.321,21.306h341.06c11.716,0,21.307-9.59,21.307-21.306L447.77,469.217L447.77,469.217z"/>
<g>
</g>
<g>
</g>
<g>
</g>
<g>
</g>
<g>
</g>
<g>
</g>
<g>
</g>
<g>
</g>
<g>
</g>
<g>
</g>
<g>
</g>
<g>
</g>
<g>
</g>
<g>
</g>
<g>
</g>
</svg>
